<svg width="28" height="28" viewBox="0 0 28 28" fill="none" xmlns="http://www.w3.org/2000/svg">
<path d="M8.53125 16.3438C10.5104 15.875 12.3333 15.6406 14 15.6406C15.6667 15.6406 17.4896 15.875 19.4688 16.3438C21.4479 16.8125 23.2448 17.5938 24.8594 18.6875C26.526 19.7812 27.3594 21.0052 27.3594 22.3594V27.3594H0.640625V22.3594C0.640625 21.0052 1.44792 19.7812 3.0625 18.6875C4.72917 17.5938 6.55208 16.8125 8.53125 16.3438ZM9.3125 2.67188C10.6146 1.31771 12.1771 0.640625 14 0.640625C15.8229 0.640625 17.3854 1.31771 18.6875 2.67188C19.9896 3.97396 20.6406 5.53646 20.6406 7.35938C20.6406 9.18229 19.9896 10.7448 18.6875 12.0469C17.3854 13.349 15.8229 14 14 14C12.1771 14 10.6146 13.349 9.3125 12.0469C8.01042 10.7448 7.35938 9.18229 7.35938 7.35938C7.35938 5.53646 8.01042 3.97396 9.3125 2.67188ZM20.7969 20.1719C18.5573 19.2865 16.2917 18.8438 14 18.8438C11.7083 18.8438 9.44271 19.2865 7.20312 20.1719C4.96354 21.0052 3.84375 21.7344 3.84375 22.3594V24.1562H24.1562V22.3594C24.1562 21.7344 23.0365 21.0052 20.7969 20.1719ZM16.5 4.85938C15.8229 4.18229 14.9896 3.84375 14 3.84375C13.0104 3.84375 12.1771 4.18229 11.5 4.85938C10.8229 5.53646 10.4844 6.36979 10.4844 7.35938C10.4844 8.34896 10.8229 9.18229 11.5 9.85938C12.1771 10.4844 13.0104 10.7969 14 10.7969C14.9896 10.7969 15.8229 10.4844 16.5 9.85938C17.1771 9.18229 17.5156 8.34896 17.5156 7.35938C17.5156 6.36979 17.1771 5.53646 16.5 4.85938Z" fill="#410000"/>
</svg>
