<svg width="30" height="30" viewBox="0 0 30 30" fill="none" xmlns="http://www.w3.org/2000/svg">
<path d="M5.54688 16.1719C7.00521 17.6302 8.77604 18.3594 10.8594 18.3594C12.9427 18.3594 14.7135 17.6302 16.1719 16.1719C17.6302 14.7135 18.3594 12.9427 18.3594 10.8594C18.3594 8.77604 17.6302 7.00521 16.1719 5.54688C14.7135 4.08854 12.9427 3.35938 10.8594 3.35938C8.77604 3.35938 7.00521 4.08854 5.54688 5.54688C4.08854 7.00521 3.35938 8.77604 3.35938 10.8594C3.35938 12.9427 4.08854 14.7135 5.54688 16.1719ZM20.8594 18.3594L29.1406 26.6406L26.6406 29.1406L18.3594 20.8594V19.5312L17.8906 19.0625C15.9115 20.7812 13.5677 21.6406 10.8594 21.6406C7.83854 21.6406 5.26042 20.599 3.125 18.5156C1.04167 16.4323 0 13.8802 0 10.8594C0 7.83854 1.04167 5.28646 3.125 3.20312C5.26042 1.06771 7.83854 0 10.8594 0C13.8802 0 16.4323 1.06771 18.5156 3.20312C20.599 5.28646 21.6406 7.83854 21.6406 10.8594C21.6406 11.9531 21.3802 13.2031 20.8594 14.6094C20.3385 15.9635 19.7396 17.0573 19.0625 17.8906L19.5312 18.3594H20.8594Z" fill="#410000"/>
</svg>
