<svg width="34" height="34" viewBox="0 0 34 34" fill="none" xmlns="http://www.w3.org/2000/svg">
<path d="M25.0156 28.0156C25.6927 27.3385 26.474 27 27.3594 27C28.2448 27 29 27.3385 29.625 28.0156C30.3021 28.6927 30.6406 29.474 30.6406 30.3594C30.6406 31.2448 30.3021 32.026 29.625 32.7031C29 33.3281 28.2448 33.6406 27.3594 33.6406C26.474 33.6406 25.6927 33.3281 25.0156 32.7031C24.3385 32.026 24 31.2448 24 30.3594C24 29.474 24.3385 28.6927 25.0156 28.0156ZM0.640625 0.359375H6.10938L7.67188 3.64062H32.3594C32.8281 3.64062 33.2188 3.82292 33.5312 4.1875C33.8438 4.5 34 4.89062 34 5.35938C34 5.41146 33.9219 5.67188 33.7656 6.14062L27.8281 16.9219C27.2031 18.0677 26.2396 18.6406 24.9375 18.6406H12.5156L11.0312 21.375L10.9531 21.6094C10.9531 21.8698 11.0833 22 11.3438 22H30.6406V25.3594H10.6406C9.75521 25.3594 8.97396 25.0208 8.29688 24.3438C7.67188 23.6667 7.35938 22.8854 7.35938 22C7.35938 21.4792 7.48958 20.9583 7.75 20.4375L10.0156 16.2969L4 3.64062H0.640625V0.359375ZM8.29688 28.0156C8.97396 27.3385 9.75521 27 10.6406 27C11.526 27 12.3073 27.3385 12.9844 28.0156C13.6615 28.6927 14 29.474 14 30.3594C14 31.2448 13.6615 32.026 12.9844 32.7031C12.3073 33.3281 11.526 33.6406 10.6406 33.6406C9.75521 33.6406 8.97396 33.3281 8.29688 32.7031C7.67188 32.026 7.35938 31.2448 7.35938 30.3594C7.35938 29.474 7.67188 28.6927 8.29688 28.0156Z" fill="#410000"/>
</svg>
